<svg width="50" height="50" viewBox="0 0 50 50" fill="none" xmlns="http://www.w3.org/2000/svg">
<path fill-rule="evenodd" clip-rule="evenodd" d="M26.1062 35.4813C25.9611 35.6268 25.7887 35.7422 25.5988 35.821C25.409 35.8998 25.2055 35.9403 25 35.9403C24.7945 35.9403 24.591 35.8998 24.4011 35.821C24.2113 35.7422 24.0389 35.6268 23.8937 35.4813L5.14373 16.7313C4.85034 16.4379 4.68551 16.0399 4.68551 15.625C4.68551 15.2101 4.85034 14.8122 5.14373 14.5188C5.43713 14.2254 5.83506 14.0605 6.24998 14.0605C6.66491 14.0605 7.06284 14.2254 7.35623 14.5188L25 32.1656L42.6437 14.5188C42.9371 14.2254 43.3351 14.0605 43.75 14.0605C44.1649 14.0605 44.5628 14.2254 44.8562 14.5188C45.1496 14.8122 45.3145 15.2101 45.3145 15.625C45.3145 16.0399 45.1496 16.4379 44.8562 16.7313L26.1062 35.4813Z" fill="white"/>
</svg>
