<svg width="109" height="80" viewBox="0 0 109 80" fill="none" xmlns="http://www.w3.org/2000/svg">
<g clip-path="url(#clip0_17_6)">
<path d="M17.0142 79.6604H15.5555C15.3776 79.6604 15.2354 79.5181 15.2354 79.3409V68.0931C15.2354 67.9159 15.3776 67.774 15.5555 67.774H19.2555C19.8959 67.774 20.4652 67.8804 20.9632 68.0577C21.4613 68.235 21.9238 68.4836 22.2796 68.8381C22.6353 69.1577 22.9199 69.5481 23.1334 70.0091C23.3469 70.4704 23.4536 71.0027 23.4536 71.5704C23.4536 72.1027 23.3469 72.5995 23.1334 73.0604C22.9199 73.5218 22.6353 73.9122 22.2796 74.2313C21.9238 74.5509 21.4613 74.7991 20.9632 74.9768C20.4652 75.1541 19.8603 75.2604 19.2555 75.2604H17.3699V79.3763C17.3344 79.5181 17.1921 79.6604 17.0142 79.6604ZM19.22 73.4509C19.5401 73.4509 19.8603 73.4154 20.1094 73.309C20.3584 73.2027 20.5719 73.0604 20.7497 72.8831C20.9277 72.7059 21.07 72.4927 21.1411 72.28C21.2122 72.0318 21.2834 71.7831 21.2834 71.535C21.2834 71.2509 21.2478 70.9672 21.1411 70.7186C21.07 70.4704 20.9277 70.2577 20.7497 70.08C20.5719 69.9027 20.3584 69.7609 20.1094 69.6545C19.8603 69.5481 19.5757 69.4768 19.22 69.4768H17.3344V73.4509H19.22Z" fill="white"/>
<path d="M29.0746 68.0572V79.305C29.0746 79.4827 28.9323 79.6245 28.7544 79.6245H27.2958C27.1179 79.6245 26.9756 79.4827 26.9756 79.305V68.0572C26.9756 67.88 27.1179 67.7382 27.2958 67.7382H28.7544C28.8968 67.7382 29.0746 67.88 29.0746 68.0572Z" fill="white"/>
<path d="M93.9316 68.0572V79.305C93.9316 79.4827 93.7893 79.6245 93.6114 79.6245H92.1524C91.9746 79.6245 91.8323 79.4827 91.8323 79.305V68.0572C91.8323 67.88 91.9746 67.7382 92.1524 67.7382H93.6114C93.7537 67.7382 93.9316 67.88 93.9316 68.0572Z" fill="white"/>
<path d="M38.3246 69.4768V79.305C38.3246 79.4827 38.1823 79.6245 38.0044 79.6245H36.5457C36.3679 79.6245 36.2255 79.4827 36.2255 79.305V69.4768H32.9169C32.739 69.4768 32.5967 69.335 32.5967 69.1572V68.0572C32.5967 67.88 32.739 67.7382 32.9169 67.7382H41.74C41.9178 67.7382 42.0602 67.88 42.0602 68.0572V69.1572C42.0602 69.335 41.9178 69.4768 41.74 69.4768H38.3246Z" fill="white"/>
<path d="M47.2188 74.3732V77.9213H52.6264C52.8042 77.9213 52.9465 78.0632 52.9465 78.2409V79.305C52.9465 79.4827 52.8042 79.6245 52.6264 79.6245H45.3688C45.1909 79.6245 45.0486 79.4827 45.0486 79.305V68.0572C45.0486 67.88 45.1909 67.7382 45.3688 67.7382H52.5908C52.7687 67.7382 52.911 67.88 52.911 68.0572V69.1572C52.911 69.335 52.7687 69.4768 52.5908 69.4768H47.1832V72.67H51.7726C51.9505 72.67 52.0928 72.8118 52.0928 72.9895V74.0186C52.0928 74.1959 51.9505 74.3377 51.7726 74.3377H47.2188V74.3732Z" fill="white"/>
<path d="M58.6037 75.1186V79.3409C58.6037 79.5181 58.4614 79.6604 58.2835 79.6604H56.8246C56.6467 79.6604 56.5044 79.5181 56.5044 79.3409V68.0931C56.5044 67.9159 56.6467 67.774 56.8246 67.774H60.3823C61.0226 67.774 61.5918 67.845 62.1254 68.0222C62.6595 68.1641 63.1219 68.4127 63.4777 68.6963C63.869 68.9804 64.1535 69.3704 64.367 69.7963C64.5804 70.2577 64.6872 70.7545 64.6872 71.3577C64.6872 71.7831 64.6516 72.1381 64.5449 72.4927C64.4381 72.8477 64.2958 73.1318 64.118 73.38C63.9045 73.6636 63.6911 73.8768 63.4065 74.0895C63.1575 74.3027 62.8373 74.48 62.5172 74.6218L65.0429 79.4472C65.0785 79.5536 65.0073 79.6604 64.9006 79.6604H63.0152C62.8729 79.6604 62.7662 79.5891 62.7306 79.4827L60.5602 75.1186H58.6037ZM60.3823 73.38C60.7381 73.38 61.0582 73.3445 61.3072 73.2381C61.5918 73.1318 61.8053 72.9895 62.0187 72.8122C62.161 72.6704 62.3033 72.4572 62.3744 72.2445C62.4456 72.0318 62.5172 71.7477 62.5172 71.464C62.5172 71.1445 62.4816 70.8609 62.3744 70.5768C62.2677 70.3286 62.1254 70.1154 61.912 69.9381C61.7341 69.7963 61.5207 69.6545 61.2361 69.5836C60.9871 69.5122 60.7025 69.4768 60.3468 69.4768H58.5681V73.38H60.3823Z" fill="white"/>
<path d="M74.044 75.8991C73.9372 75.6859 73.795 75.5086 73.6171 75.3314C73.4036 75.1896 73.1902 75.0118 72.87 74.9055C72.5855 74.7636 72.2297 74.6573 71.8384 74.5509C71.2332 74.3732 70.664 74.1605 70.2016 73.9477C69.7036 73.6991 69.3123 73.4155 68.9921 73.1314C68.6719 72.8477 68.4229 72.4927 68.2451 72.1023C68.0672 71.7123 67.9961 71.3218 67.9961 70.8605C67.9961 70.3641 68.1028 69.9027 68.3162 69.4768C68.5297 69.0509 68.8142 68.7318 69.2055 68.4477C69.5613 68.1641 70.0237 67.9509 70.5218 67.7736C71.0198 67.6318 71.5534 67.5609 72.123 67.5609C72.7278 67.5609 73.2969 67.6673 73.7949 67.8445C74.293 68.0223 74.7554 68.2705 75.1112 68.59C75.4669 68.9091 75.787 69.2996 76.0005 69.7605C76.1788 70.1155 76.25 70.4705 76.2855 70.8605C76.3211 71.0736 76.1428 71.2509 75.9649 71.2509H74.6487C74.3641 71.2509 74.2218 71.1446 74.1862 70.9673C74.1507 70.7896 74.1151 70.6123 74.044 70.4705C73.9372 70.2218 73.8305 70.0445 73.6527 69.8673C73.4748 69.6895 73.2613 69.5477 73.0123 69.4768C72.7633 69.3705 72.4432 69.335 72.123 69.335C71.8384 69.335 71.5534 69.3705 71.3044 69.4414C71.0553 69.5123 70.8419 69.6186 70.664 69.7605C70.4862 69.9027 70.3439 70.08 70.2727 70.2573C70.166 70.435 70.1304 70.6832 70.1304 70.8959C70.1304 71.1445 70.2016 71.3573 70.3083 71.5705C70.415 71.7477 70.5929 71.925 70.8419 72.0668C71.0554 72.2091 71.3399 72.3509 71.6245 72.4573C71.9451 72.5636 72.2653 72.67 72.621 72.7768C73.0479 72.8832 73.4392 73.025 73.8305 73.2023C74.2218 73.38 74.5776 73.5573 74.8977 73.8055C75.3602 74.125 75.7159 74.515 75.9649 74.9764C76.25 75.4377 76.3567 75.9345 76.3567 76.5377C76.3567 77.07 76.25 77.5314 76.0361 77.9214C75.8226 78.3118 75.538 78.6664 75.1467 78.9505C74.791 79.2341 74.3285 79.4473 73.8305 79.5891C73.3325 79.7309 72.7633 79.8018 72.1941 79.8018C71.5889 79.8018 71.0198 79.6955 70.4506 79.5182C69.8814 79.3409 69.3834 79.0923 68.9565 78.7377C68.5652 78.4182 68.2451 78.0277 67.9961 77.5668C67.8182 77.2118 67.7115 76.8214 67.6403 76.3605C67.6047 76.1473 67.7826 76.0055 67.9605 76.0055H69.419C69.5969 76.0055 69.7391 76.1118 69.7391 76.2891C69.7747 76.5377 69.8459 76.7505 69.917 76.9636C70.0237 77.2118 70.2016 77.46 70.415 77.6023C70.6285 77.7796 70.8775 77.8859 71.1621 77.9923C71.4467 78.0632 71.7668 78.0991 72.123 78.0991C72.4432 78.0991 72.6922 78.0632 72.9412 77.9923C73.1902 77.9214 73.4036 77.815 73.5815 77.6732C73.7594 77.5314 73.9017 77.3891 74.0084 77.1764C74.1151 76.9991 74.1507 76.7859 74.1507 76.5377C74.1863 76.325 74.1151 76.1118 74.044 75.8991Z" fill="white"/>
<path d="M82.0133 76.0409V79.3404C82.0133 79.5182 81.871 79.66 81.6931 79.66H80.1986C80.0207 79.66 79.8784 79.5182 79.8784 79.3404V68.0932C79.8784 67.9154 80.0207 67.7736 80.1986 67.7736H81.6931C81.871 67.7736 82.0133 67.9154 82.0133 68.0932V73.2732L86.0335 67.88C86.1046 67.8091 86.2114 67.7382 86.3181 67.7382H88.4525C88.5948 67.7382 88.6659 67.88 88.5592 67.9863L84.0409 73.8409L88.7726 79.4472C88.8438 79.5536 88.7726 79.6954 88.6303 79.6954H86.5315C86.4248 79.6954 86.3181 79.6245 86.2469 79.5182L81.9777 74.7282L82.0133 76.0409Z" fill="white"/>
<path d="M108.376 75.0113H98.3074C98.0228 75.0113 97.7738 74.7631 97.7738 74.479C97.7738 74.1954 98.0228 73.9468 98.3074 73.9468H107.344L54.5478 1.56417L1.75155 73.9468H11.2862C11.5708 73.9468 11.8198 74.1954 11.8198 74.479C11.8198 74.7631 11.5708 75.0113 11.2862 75.0113H0.719813C0.506355 75.0113 0.328469 74.905 0.257315 74.7277C0.150584 74.55 0.186161 74.3372 0.292892 74.16L54.1209 0.357788C54.3344 0.0739341 54.7968 0.0739341 54.9747 0.357788L108.802 74.1954C108.909 74.3727 108.945 74.5854 108.838 74.7631C108.731 74.9404 108.589 75.0113 108.376 75.0113Z" fill="white"/>
<path d="M54.5835 64.9418C54.4412 64.9418 54.3344 64.9063 54.2277 64.7999C53.9076 64.5159 46.6141 57.8454 44.5864 54.8295C43.9816 53.9422 43.6614 52.8422 43.6614 51.7068C43.6614 48.5136 46.2228 45.9236 49.3893 45.9236C51.666 45.9236 53.6585 47.2718 54.5835 49.2586C55.5439 47.3427 57.5009 46.0654 59.7065 46.0654C62.9085 46.0654 65.4347 48.549 65.4347 51.7068C65.4347 53.0554 65.1501 54.084 64.5449 54.9359C62.2682 58.129 55.2593 64.5513 54.9392 64.7999C54.8325 64.8709 54.6902 64.9418 54.5835 64.9418ZM49.3893 46.9881C46.8276 46.9881 44.7287 49.1168 44.7287 51.7068C44.7287 52.6649 44.9777 53.5168 45.4758 54.2618C47.1833 56.8163 53.0538 62.3159 54.5835 63.6999C56.0775 62.3159 61.7702 57.029 63.6555 54.3327C64.1536 53.6231 64.367 52.8422 64.367 51.7068C64.367 49.1522 62.3038 47.1299 59.7065 47.1299C57.3586 47.1299 55.3661 48.904 55.0815 51.2459C55.0459 51.5295 54.8325 51.7068 54.5479 51.7068C54.2633 51.7068 54.0499 51.494 54.0143 51.2104C53.8008 48.7977 51.8083 46.9881 49.3893 46.9881Z" fill="white"/>
<path d="M70.2369 61.9618C70.0946 61.9618 69.9523 61.9264 69.8456 61.8196C69.6322 61.6069 69.6322 61.2873 69.8456 61.0746L83.0802 47.8755C83.2937 47.6628 83.6138 47.6628 83.8273 47.8755C84.0407 48.0882 84.0407 48.4078 83.8273 48.6205L70.5927 61.8196C70.5215 61.9264 70.3792 61.9618 70.2369 61.9618Z" fill="white"/>
<path d="M80.6613 64.3381C80.519 64.3381 80.3767 64.3027 80.27 64.1963L76.8901 60.8254L73.5101 64.1963C73.2967 64.4095 72.9765 64.4095 72.7631 64.1963C72.5497 63.9836 72.5497 63.664 72.7631 63.4513L76.5343 59.6904C76.7478 59.4772 77.0679 59.4772 77.2814 59.6904L81.0526 63.4513C81.266 63.664 81.266 63.9836 81.0526 64.1963C80.9459 64.3027 80.8036 64.3381 80.6613 64.3381Z" fill="white"/>
<path d="M76.8189 50.1455C76.6766 50.1455 76.5344 50.11 76.4276 50.0036L72.6564 46.2427C72.443 46.0296 72.443 45.7105 72.6564 45.4973C72.8699 45.2846 73.19 45.2846 73.4035 45.4973L76.7834 48.8682L80.1633 45.4973C80.3767 45.2846 80.6969 45.2846 80.9103 45.4973C81.1238 45.7105 81.1238 46.0296 80.9103 46.2427L77.1391 50.0036C77.068 50.11 76.9257 50.1455 76.8189 50.1455Z" fill="white"/>
<path d="M76.819 64.7286C76.5344 64.7286 76.2854 64.4804 76.2854 64.1963V45.4977C76.2854 45.2137 76.5344 44.9653 76.819 44.9653C77.1036 44.9653 77.3526 45.2137 77.3526 45.4977V64.1963C77.3526 64.4804 77.1036 64.7286 76.819 64.7286Z" fill="white"/>
<path d="M85.8556 59.0872C85.7133 59.0872 85.571 59.0518 85.4643 58.9454L81.693 55.1491C81.4796 54.9359 81.4796 54.6168 81.693 54.4041L85.4643 50.6427C85.6777 50.43 85.9979 50.43 86.2113 50.6427C86.4247 50.8559 86.4247 51.175 86.2113 51.3882L82.8314 54.7586L86.2113 58.1295C86.4247 58.3422 86.4247 58.6618 86.2113 58.8745C86.1046 59.0163 85.9979 59.0872 85.8556 59.0872Z" fill="white"/>
<path d="M67.8536 59.1936C67.7113 59.1936 67.569 59.1581 67.4623 59.0518C67.2489 58.8386 67.2489 58.5195 67.4623 58.3068L70.8418 54.9359L67.4623 51.5649C67.2489 51.3522 67.2489 51.0327 67.4623 50.8199C67.6758 50.6072 67.9959 50.6072 68.2094 50.8199L71.9806 54.5809C72.0873 54.6872 72.1229 54.8295 72.1229 54.9713C72.1229 55.1131 72.0517 55.2549 71.9806 55.3618L68.2094 59.1227C68.1382 59.1227 67.9959 59.1936 67.8536 59.1936Z" fill="white"/>
<path d="M86.2112 55.3977H67.4623C67.1777 55.3977 66.9287 55.1495 66.9287 54.8654C66.9287 54.5818 67.1777 54.3331 67.4623 54.3331H86.2112C86.4958 54.3331 86.7448 54.5818 86.7448 54.8654C86.7448 55.1495 86.5314 55.3977 86.2112 55.3977Z" fill="white"/>
<path d="M83.4715 61.9614C83.3292 61.9614 83.187 61.9259 83.0802 61.8196L69.8456 48.6205C69.6322 48.4073 69.6322 48.0882 69.8456 47.875C70.0591 47.6623 70.3797 47.6623 70.5931 47.875L83.8277 61.0745C84.0412 61.2873 84.0412 61.6068 83.8277 61.8196C83.7566 61.9259 83.6143 61.9614 83.4715 61.9614Z" fill="white"/>
<path d="M45.4117 35.5626C44.1665 35.5626 43.1348 34.5337 43.1348 33.2918C43.1348 32.0499 44.1665 31.021 45.4117 31.021C46.6571 31.021 47.6887 32.0499 47.6887 33.2918C47.6887 34.5337 46.6571 35.5626 45.4117 35.5626ZM45.4117 32.05C44.7357 32.05 44.2021 32.5822 44.2021 33.2564C44.2021 33.9305 44.7357 34.4627 45.4117 34.4627C46.0879 34.4627 46.6215 33.9305 46.6215 33.2564C46.6215 32.5822 46.0879 32.05 45.4117 32.05Z" fill="white"/>
<path d="M53.274 41.7007C53.1317 41.7007 52.9894 41.6652 52.8827 41.5588L47.404 36.0946C47.1905 35.8817 47.1905 35.5624 47.404 35.3495C47.6174 35.1366 47.9376 35.1366 48.151 35.3495L53.6297 40.8137C53.8432 41.0266 53.8432 41.3459 53.6297 41.5588C53.523 41.6652 53.4163 41.7007 53.274 41.7007Z" fill="white"/>
<path d="M42.957 31.4111C42.8146 31.4111 42.6723 31.3756 42.5656 31.2692L39.0791 27.792C38.8656 27.5791 38.8656 27.2598 39.0791 27.0469C39.2925 26.834 39.6127 26.834 39.8261 27.0469L43.3127 30.5241C43.5262 30.7369 43.5262 31.0563 43.3127 31.2692C43.2415 31.3756 43.0992 31.4111 42.957 31.4111Z" fill="white"/>
<path d="M45.3759 42.4109C45.0913 42.4109 44.8423 42.1625 44.8423 41.8787V36.6984C44.8423 36.4145 45.0913 36.1661 45.3759 36.1661C45.6604 36.1661 45.9094 36.4145 45.9094 36.6984V41.8787C45.9094 42.1625 45.6604 42.4109 45.3759 42.4109Z" fill="white"/>
<path d="M45.3759 30.4177C45.0913 30.4177 44.8423 30.1693 44.8423 29.8855V23.7826C44.8423 23.4987 45.0913 23.2504 45.3759 23.2504C45.6604 23.2504 45.9094 23.4987 45.9094 23.7826V29.8855C45.9094 30.2048 45.6604 30.4177 45.3759 30.4177Z" fill="white"/>
<path d="M54.9109 33.8241H48.7914C48.5068 33.8241 48.2578 33.5757 48.2578 33.2919C48.2578 33.008 48.5068 32.7596 48.7914 32.7596H54.9109C55.1955 32.7596 55.4445 33.008 55.4445 33.2919C55.4445 33.5757 55.1955 33.8241 54.9109 33.8241Z" fill="white"/>
<path d="M41.9964 33.8239L35.4858 33.7885C35.2012 33.7885 34.9521 33.54 34.9521 33.2562C34.9521 32.9724 35.2012 32.724 35.4858 32.724L41.9964 32.7595C42.281 32.7595 42.53 33.0079 42.53 33.2917C42.53 33.611 42.281 33.8239 41.9964 33.8239Z" fill="white"/>
<path d="M47.7953 31.4117C47.653 31.4117 47.5107 31.3763 47.404 31.2698C47.1905 31.0569 47.1905 30.7376 47.404 30.5247L54.4124 23.5348C54.6258 23.3219 54.946 23.3219 55.1598 23.5348C55.3733 23.7477 55.3733 24.067 55.1598 24.2799L48.151 31.2698C48.0799 31.3763 47.9376 31.4117 47.7953 31.4117Z" fill="white"/>
<path d="M37.478 41.7007C37.3356 41.7007 37.1933 41.6652 37.0866 41.5588C36.8731 41.3459 36.8731 41.0266 37.0866 40.8137L42.5655 35.3495C42.7789 35.1366 43.0991 35.1366 43.3126 35.3495C43.526 35.5624 43.526 35.8817 43.3126 36.0946L37.8337 41.5588C37.7626 41.6652 37.6203 41.7007 37.478 41.7007Z" fill="white"/>
<path d="M50.9545 18.9856C50.7766 18.9856 50.6343 18.9146 50.5276 18.7727L46.0449 12.6343C45.867 12.386 45.9382 12.0667 46.1516 11.8893C46.4006 11.7118 46.7208 11.7828 46.8987 11.9957L51.4169 18.134C51.5948 18.3824 51.5236 18.7017 51.3102 18.8791C51.2035 18.9501 51.0612 18.9856 50.9545 18.9856Z" fill="white"/>
<path d="M58.6749 15.2956C58.497 15.2956 58.3547 15.2247 58.248 15.0827L55.8286 11.7829C55.6507 11.5346 55.7219 11.2152 55.9353 11.0378C56.1843 10.8604 56.5045 10.9314 56.6828 11.1443L59.1018 14.4441C59.2796 14.6924 59.2085 15.0118 58.9951 15.1892C58.8883 15.2601 58.7816 15.2956 58.6749 15.2956Z" fill="white"/>
<path d="M51.0612 19.0567C50.9545 19.0567 50.8478 19.0212 50.7411 18.9502C50.4921 18.7728 50.4565 18.4535 50.6344 18.2051L55.7574 11.1797C55.9352 10.9314 56.2554 10.8959 56.5044 11.0733C56.7534 11.2507 56.789 11.57 56.6111 11.8184L51.4881 18.8438C51.3814 18.9857 51.2391 19.0567 51.0612 19.0567Z" fill="white"/>
<path d="M58.6748 15.2955C58.568 15.2955 58.4613 15.26 58.3546 15.189C58.1056 15.0116 58.07 14.6923 58.2479 14.4439L61.1293 10.5054C61.3072 10.2571 61.6273 10.2216 61.8764 10.399C62.1258 10.5764 62.1614 10.8957 61.9831 11.1441L59.1016 15.0826C58.9949 15.2245 58.8526 15.2955 58.6748 15.2955Z" fill="white"/>
<path d="M37.364 64.6936C35.8698 64.6936 34.4823 64.0195 33.5217 62.8486H32.4188C31.4226 64.0904 29.8928 64.7645 28.2919 64.6582C25.8015 64.5163 23.7736 62.4582 23.6669 59.9745C23.5957 58.6263 24.0938 57.3491 25.0188 56.3909C25.9438 55.4332 27.2245 54.9009 28.5765 54.9009H37.5419H37.5774C38.8938 54.9718 40.1034 55.5395 40.9928 56.5327C41.8823 57.4909 42.3092 58.7681 42.238 60.0809C42.0957 62.5295 40.0678 64.5518 37.613 64.6936C37.5419 64.6936 37.4707 64.6936 37.364 64.6936ZM32.1697 61.7841H33.8063C33.9842 61.7841 34.1265 61.855 34.2332 61.9972C35.0159 63.0613 36.2611 63.665 37.5774 63.5936C39.4986 63.4872 41.064 61.8909 41.1707 59.9745C41.2419 58.9459 40.8861 57.9877 40.2101 57.2072C39.5342 56.4618 38.5736 56.0009 37.5419 55.9295H28.5765C27.5092 55.9295 26.5486 56.3554 25.8015 57.1004C25.0544 57.8459 24.6986 58.8745 24.7342 59.9036C24.8053 61.855 26.4063 63.4518 28.3275 63.5582C29.6438 63.6291 30.9246 63.0259 31.6717 61.9618C31.8496 61.855 31.9919 61.7841 32.1697 61.7841Z" fill="white"/>
<path d="M40.3526 56.994C40.068 56.994 39.819 56.7454 39.819 56.4618V52.7009C39.819 52.4877 39.7478 52.2749 39.5699 52.1331L35.2651 47.8754C33.9844 46.5977 31.9209 46.5977 30.6401 47.9109L26.4064 52.1686C26.2641 52.3104 26.1574 52.5231 26.1574 52.7363V56.4618C26.1574 56.7454 25.9084 56.994 25.6238 56.994C25.3391 56.994 25.0901 56.7454 25.0901 56.4618V52.7363C25.0901 52.2395 25.268 51.7781 25.6238 51.4231L29.8574 47.1654C31.5295 45.4622 34.3045 45.4622 36.0122 47.1299L40.317 51.3877C40.6728 51.7427 40.8862 52.2395 40.8862 52.7363V56.4972C40.8862 56.7454 40.6372 56.994 40.3526 56.994Z" fill="white"/>
<path d="M32.988 46.9173C31.6361 46.9173 30.5332 45.8173 30.5332 44.4689C30.5332 43.1206 31.6361 42.0206 32.988 42.0206C34.34 42.0206 35.4428 43.1206 35.4428 44.4689C35.4428 45.8173 34.34 46.9173 32.988 46.9173ZM32.988 43.0851C32.2409 43.0851 31.6005 43.6883 31.6005 44.4689C31.6005 45.2495 32.2053 45.8528 32.988 45.8528C33.7351 45.8528 34.3755 45.2495 34.3755 44.4689C34.3755 43.6883 33.7351 43.0851 32.988 43.0851Z" fill="white"/>
<path d="M26.7265 61.1809C26.5842 61.1809 26.4418 61.1455 26.3351 61.0391C26.1217 60.8259 26.1217 60.5068 26.3351 60.2941L28.79 57.8455C29.0034 57.6327 29.3236 57.6327 29.537 57.8455C29.7505 58.0586 29.7505 58.3777 29.537 58.5909L27.0823 61.0391C27.0111 61.11 26.8688 61.1809 26.7265 61.1809Z" fill="white"/>
<path d="M26.5131 59.2295C26.3708 59.2295 26.2285 59.1941 26.1217 59.0877C25.9083 58.8745 25.9083 58.5554 26.1217 58.3422L26.8333 57.6327C27.0467 57.42 27.3669 57.42 27.5804 57.6327C27.7939 57.8459 27.7939 58.165 27.5804 58.3777L26.8689 59.0877C26.7977 59.1586 26.6554 59.2295 26.5131 59.2295Z" fill="white"/>
<path d="M65.8164 43.2295H63.8239C63.5489 43.2295 63.3085 42.9896 63.3085 42.7155V41.0365H57.1927C56.9865 41.0365 56.8151 40.8995 56.712 40.7281C56.6431 40.5568 56.6773 40.3169 56.8151 40.1799L61.3844 35.3485H57.8111C57.605 35.3485 57.4335 35.2114 57.3304 35.04C57.2615 34.8687 57.2957 34.6289 57.4335 34.4918L62.484 29.1464H59.701C59.4949 29.1464 59.2888 29.0094 59.2199 28.838C59.151 28.6667 59.1857 28.4269 59.323 28.2898L64.4423 23.1842C64.6485 22.9786 64.9577 22.9786 65.1638 23.1842L70.2827 28.2898C70.4204 28.4269 70.4889 28.6667 70.3858 28.838C70.2827 29.0094 70.1112 29.1464 69.9051 29.1464H67.1222L72.1727 34.4918C72.3099 34.6289 72.3441 34.8687 72.2757 35.04C72.2069 35.2114 72.0007 35.3485 71.7946 35.3485H68.2213L72.7911 40.1799C72.9284 40.3169 72.9626 40.5568 72.8941 40.7281C72.8253 40.8995 72.6191 41.0365 72.413 41.0365H66.2976V42.7155C66.3318 42.9896 66.1257 43.2295 65.8164 43.2295ZM64.3392 42.2015H65.3011V40.5225C65.3011 40.2484 65.5414 40.0085 65.8164 40.0085H71.2792L66.7099 35.1771C66.5722 35.04 66.5379 34.8002 66.6068 34.6289C66.6752 34.4575 66.8814 34.3205 67.0875 34.3205H70.6608L65.6103 28.9751C65.473 28.838 65.4384 28.5982 65.5072 28.4269C65.5761 28.2555 65.7822 28.1184 65.9884 28.1184H68.7366L64.8546 24.2464L60.9379 28.0842H63.6862C63.8923 28.0842 64.0642 28.2213 64.1673 28.3926C64.2362 28.5639 64.2015 28.8038 64.0642 28.9408L59.0138 34.2862H62.587C62.7932 34.2862 62.9647 34.4233 63.0677 34.5946C63.1366 34.766 63.1024 35.0058 62.9647 35.1429L58.3953 39.9743H63.8581C64.1331 39.9743 64.3735 40.2141 64.3735 40.4883V42.2015H64.3392Z" fill="white"/>
</g>
<defs>
<clipPath id="clip0_17_6">
<rect width="109" height="80" fill="white"/>
</clipPath>
</defs>
</svg>
